<svg xmlns="http://www.w3.org/2000/svg" viewBox="0 0 55.24 120.78"><defs><style>.cls-1{fill:#c69c6d;}.cls-2{fill:#cecece;stroke:#cecece;stroke-miterlimit:10;}.cls-3{fill:#fff;}</style></defs><title>Untitled-1</title><g id="neck"><path class="cls-1" d="M125.86,217c0-.51,1.43-.5,1.86-1.52.13-.3-.07-.41.13-.65,1.23-1.46,4.44-2.41,3.91-.5-.24.86,0,.84,0,1,.26.71,1.47.69,1.53,1.25a.56.56,0,0,1-.05.25c-.47,1.23-.92,2.4-2.14,3a3.85,3.85,0,0,1-.78.24,3.15,3.15,0,0,1-2.27-.33c-.65-.44-.37-.9-1.18-1.72C126.28,217.36,125.84,217.31,125.86,217Z" transform="translate(-100.15 -144.68)"/><path d="M125.82,217c.05-.28.33-.37.52-.47s.42-.19.62-.3a1.31,1.31,0,0,0,.78-1,.45.45,0,0,1,.06-.34,3.08,3.08,0,0,1,.24-.26,4.51,4.51,0,0,1,.53-.45,5.76,5.76,0,0,1,1.22-.66,3.08,3.08,0,0,1,1.37-.24.72.72,0,0,1,.59.34,1,1,0,0,1,0,.69,3.24,3.24,0,0,0-.12.68.43.43,0,0,0,.11.3,1,1,0,0,0,.18.29c.32.33.8.41,1.19.69a.5.5,0,0,1,.19.31.72.72,0,0,1-.06.36l-.22.66a5.13,5.13,0,0,1-.65,1.25,3.28,3.28,0,0,1-2.42,1.33,3.21,3.21,0,0,1-1.41-.13,1.66,1.66,0,0,1-1.06-.91,2.93,2.93,0,0,0-.71-1.15,3.67,3.67,0,0,0-.52-.44C126.13,217.4,125.84,217.32,125.82,217Zm.08,0c0,.2.27.3.44.44a3.93,3.93,0,0,1,.55.44,3.09,3.09,0,0,1,.75,1.17,1.47,1.47,0,0,0,1,.81,3,3,0,0,0,1.34.1,3,3,0,0,0,2.25-1.29,8,8,0,0,0,.64-1.19l.29-.63a.39.39,0,0,0-.05-.57c-.34-.28-.85-.35-1.18-.71a1.12,1.12,0,0,1-.19-.29.49.49,0,0,1-.11-.33,3.11,3.11,0,0,1,.12-.69.91.91,0,0,0,0-.65.68.68,0,0,0-.56-.32,3,3,0,0,0-1.34.24,5.24,5.24,0,0,0-1.21.65,4.42,4.42,0,0,0-.53.44c-.15.16-.36.32-.28.57a1.47,1.47,0,0,1-.8,1.09c-.2.12-.41.21-.62.31S125.92,216.82,125.9,217Z" transform="translate(-100.15 -144.68)"/></g><g id="chest"><path d="M128.05,219.76c-.48-.54-.76-1.06-1.17-1.58a8.42,8.42,0,0,0-.61-.73c-.22-.21-.46-.49-.75-.41-1.24.25-2.26,1.16-3.46,1.6-.28.15-.31.4-.19.72a3.69,3.69,0,0,1,.06,1,8,8,0,0,0,.15,1.89c.09.64.11,1.3.21,1.91a2.59,2.59,0,0,0,.8,1.59,4,4,0,0,1,.8.62.63.63,0,0,1,.1.3.68.68,0,0,1-.06.3,1.54,1.54,0,0,0-.07.42,2.74,2.74,0,0,0,.21.88,6.32,6.32,0,0,1,.21,1c0,.35,0,.66,0,1a7.85,7.85,0,0,0,.18.92,13.85,13.85,0,0,0,.32,1.85,3.84,3.84,0,0,1,.23.46,1.37,1.37,0,0,1,0,.57,4.51,4.51,0,0,0-.24.9c0,.27.08.6.1.93a4.68,4.68,0,0,1,.06,1,3.47,3.47,0,0,1-.08.47.63.63,0,0,0,.09.33,1.29,1.29,0,0,0,.6.53c.57.23,1.2.4,1.81.59l.06,0,0,0a1.42,1.42,0,0,0,.46.29,4.13,4.13,0,0,0,.61.07,2.64,2.64,0,0,1,1.32.45,7.35,7.35,0,0,0,1.08.65c.18.06.27,0,.25,0a1,1,0,0,1,.16-.35.81.81,0,0,1,.31-.3c.46-.23.76-.35,1.22-.6a3.18,3.18,0,0,1,1.37,0,.49.49,0,0,0,.43-.22l.44-.44a3.39,3.39,0,0,0,.37-.46.32.32,0,0,0,0-.21l0-.32c-.06-.88-.15-1.73-.17-2.64s.19-1.77.29-2.62a9.29,9.29,0,0,0,.06-1.27,1.4,1.4,0,0,0-.19-.54,1.88,1.88,0,0,1-.28-.66,2.72,2.72,0,0,1,.17-1.39,1.82,1.82,0,0,0,.2-.56c0-.17,0-.41-.06-.63a3.66,3.66,0,0,1,0-1.36,3.12,3.12,0,0,1,.68-1.19,6.42,6.42,0,0,0,.68-1.07c.13-.37.2-.84.33-1.24a2.31,2.31,0,0,0,.07-1.25,8.29,8.29,0,0,1-.09-1.32,6.88,6.88,0,0,0-.08-1.29.59.59,0,0,0-.27-.47,5.51,5.51,0,0,0-.59-.25,8.17,8.17,0,0,1-1.14-.68c-.18-.12-.36-.25-.54-.35s-.35-.13-.47.06-.52.15-.67.14h-.07l0,0-.1.12-.17.27q-.34.56-.66,1.14l-.64,1.14-.16.29c-.11.14-.21.14-.32.2a3,3,0,0,1-.66.12A8.5,8.5,0,0,1,128.05,219.76Zm0-.12a7,7,0,0,0,2.57.31,2.53,2.53,0,0,0,.62-.13c.08,0,.22-.1.24-.14l.15-.28.64-1.15c.22-.38.43-.77.66-1.14l.18-.28a1.34,1.34,0,0,1,.11-.14.26.26,0,0,1,.11-.07h.09c.26,0,.43.07.55-.09a.47.47,0,0,1,.32-.21.66.66,0,0,1,.36.1c.2.11.38.23.57.35a8.92,8.92,0,0,0,1.11.65c.2.09.4.13.62.25a.85.85,0,0,1,.38.62,7.46,7.46,0,0,1,.11,1.33,7.8,7.8,0,0,0,.1,1.28,2.48,2.48,0,0,1-.06,1.35c-.12.43-.17.83-.32,1.29a6.42,6.42,0,0,1-.71,1.16,2.89,2.89,0,0,0-.6,1.08,3.47,3.47,0,0,0,0,1.24c0,.22,0,.41.06.67a1.87,1.87,0,0,1-.22.68,2.45,2.45,0,0,0-.14,1.19,1.8,1.8,0,0,0,.24.54,1.73,1.73,0,0,1,.25.69,9.72,9.72,0,0,1-.06,1.34c-.09.89-.22,1.75-.26,2.6s.12,1.73.19,2.59l0,.34a.82.82,0,0,1-.09.43,3,3,0,0,1-.44.57l-.48.49a.94.94,0,0,1-.71.33,2.92,2.92,0,0,0-1.22,0c-.3.18-.81.4-1.13.57a.75.75,0,0,0-.16.15,1.4,1.4,0,0,0-.1.25.47.47,0,0,1-.17.25.6.6,0,0,1-.27.1.84.84,0,0,1-.43,0,7,7,0,0,1-1.17-.7,2.13,2.13,0,0,0-1.13-.39,4.23,4.23,0,0,1-.69-.1,1.62,1.62,0,0,1-.64-.4l.09,0c-.61-.21-1.23-.37-1.85-.62a1.74,1.74,0,0,1-.81-.73,1,1,0,0,1-.14-.59,4.62,4.62,0,0,0,.09-.47,4.85,4.85,0,0,0-.06-.92c0-.31-.1-.62-.09-1a4.74,4.74,0,0,1,.25-1,.86.86,0,0,0,0-.39c0-.08-.13-.21-.2-.39a2.65,2.65,0,0,1-.21-1,5.65,5.65,0,0,0-.12-.92,9.79,9.79,0,0,1-.18-1c0-.34,0-.68,0-1a7,7,0,0,0-.19-.91,3.34,3.34,0,0,1-.21-1,1.84,1.84,0,0,1,.1-.53,1.07,1.07,0,0,0,0-.16.44.44,0,0,0,0-.15c-.13-.19-.47-.33-.72-.55a2.06,2.06,0,0,1-.61-.83,3.93,3.93,0,0,1-.28-1c-.09-.66-.1-1.29-.18-1.92a7.86,7.86,0,0,1-.12-1.94,3.18,3.18,0,0,0,0-.93,1.24,1.24,0,0,1,0-.52.65.65,0,0,1,.35-.42c1.22-.43,2.22-1.32,3.54-1.57a.61.61,0,0,1,.27,0,1.24,1.24,0,0,1,.23.12,2.41,2.41,0,0,1,.37.34c.22.23.42.49.62.74Z" transform="translate(-100.15 -144.68)"/></g><g id="left_calf"><path class="cls-1" d="M122.45,255.51a3.77,3.77,0,0,0-.38,1.4c-.19,2.74,1.67,4.81,1.47,6.9a1.44,1.44,0,0,0,.25,1.15.92.92,0,0,0,.89.25c.58-.21.67-1.3.77-2.68a13.84,13.84,0,0,1,.13-2.42c.28-1.13.7-1.16.76-2.05a4.08,4.08,0,0,0-.63-2.23,2.49,2.49,0,0,0-1.15-1.34,1.57,1.57,0,0,0-1.15-.06A1.88,1.88,0,0,0,122.45,255.51Z" transform="translate(-100.15 -144.68)"/><path d="M122.74,255.65a4.56,4.56,0,0,0-.2,2.86,23.19,23.19,0,0,0,.9,3,7.64,7.64,0,0,1,.35,1.59,4.69,4.69,0,0,1,0,.84,1.49,1.49,0,0,0,0,.67c.09.35.69.63.94.38a2.54,2.54,0,0,0,.45-1.34c.06-.51.1-1,.14-1.55s0-1,0-1.58a4.25,4.25,0,0,1,.54-1.52,2,2,0,0,0,.27-1.42,4.31,4.31,0,0,0-.53-1.41,4.26,4.26,0,0,0-.84-1.21,1.38,1.38,0,0,0-1.24-.26A1.56,1.56,0,0,0,122.74,255.65Zm-.58-.28a2.11,2.11,0,0,1,1.25-1.23,1.86,1.86,0,0,1,1.7.42A4.49,4.49,0,0,1,126,256a4.71,4.71,0,0,1,.49,1.54,2.4,2.4,0,0,1-.34,1.59,3.85,3.85,0,0,0-.51,1.42c-.06.49,0,1,0,1.56s-.06,1.05-.11,1.58a2.73,2.73,0,0,1-.5,1.59.9.9,0,0,1-1,.14,1.15,1.15,0,0,1-.68-.65,1.94,1.94,0,0,1-.09-.88,4.42,4.42,0,0,0,0-.73,7,7,0,0,0-.39-1.46,20.88,20.88,0,0,1-1-3,6.07,6.07,0,0,1-.12-1.65A4,4,0,0,1,122.16,255.37Z" transform="translate(-100.15 -144.68)"/></g><g id="right_calf"><path class="cls-1" d="M136.57,255a3.83,3.83,0,0,1,.39,1.4c.18,2.74-1.67,4.81-1.47,6.9a1.39,1.39,0,0,1-.26,1.14.92.92,0,0,1-.89.26c-.57-.21-.66-1.3-.77-2.68a15.4,15.4,0,0,0-.12-2.43c-.29-1.13-.71-1.16-.77-2a4,4,0,0,1,.64-2.23,2.49,2.49,0,0,1,1.15-1.34,1.55,1.55,0,0,1,1.15-.07A1.91,1.91,0,0,1,136.57,255Z" transform="translate(-100.15 -144.68)"/><path d="M136.89,254.8a4.11,4.11,0,0,1,.46,1.65,6.57,6.57,0,0,1-.13,1.66,22.68,22.68,0,0,1-1.05,3,7,7,0,0,0-.4,1.44,4.45,4.45,0,0,0,0,.73,2,2,0,0,1-.1.89,1.15,1.15,0,0,1-.68.65.92.92,0,0,1-1-.14,2.78,2.78,0,0,1-.5-1.6c0-.53-.09-1-.11-1.58s0-1.07,0-1.55a3.87,3.87,0,0,0-.52-1.42,2.48,2.48,0,0,1-.35-1.6,4.48,4.48,0,0,1,.49-1.54,4.36,4.36,0,0,1,.88-1.41,1.9,1.9,0,0,1,1.72-.44A2.15,2.15,0,0,1,136.89,254.8Zm-.64.32c-.21-.48-.42-.86-.8-1a1.4,1.4,0,0,0-1.22.24,4.07,4.07,0,0,0-.84,1.2,4.21,4.21,0,0,0-.53,1.4,2,2,0,0,0,.26,1.42,4.3,4.3,0,0,1,.53,1.52c.07.56,0,1.07,0,1.58s.08,1,.14,1.56a2.46,2.46,0,0,0,.45,1.34c.25.24.84,0,.93-.39a1.63,1.63,0,0,0,0-.67,4.61,4.61,0,0,1,0-.83,7.58,7.58,0,0,1,.34-1.6,21,21,0,0,0,.88-3A4.53,4.53,0,0,0,136.25,255.12Z" transform="translate(-100.15 -144.68)"/></g><g id="left_thigh"><path d="M128,249.87a7.68,7.68,0,0,0,0,1.34c0,.46.09.94.09,1.41a1.46,1.46,0,0,1,0,.4.65.65,0,0,1-.32.44.87.87,0,0,1-.48.07,2,2,0,0,1-.4-.07c-.27-.09-.47-.24-.65-.31a1.68,1.68,0,0,0-.57-.13c-.19,0-.22.07-.6.18a.91.91,0,0,1-.5-.08,2.62,2.62,0,0,1-.34-.21,1.77,1.77,0,0,1-.3-.31c-.09-.15-.1-.21-.14-.23-.19-.09,0-.11-.35.09a.91.91,0,0,1-.45.09,2.6,2.6,0,0,1-.39-.05,1.5,1.5,0,0,1-.71-.41.65.65,0,0,1-.19-.51,2.55,2.55,0,0,1,.13-.37,1.12,1.12,0,0,0,.17-.56c0-.07-.06-.18-.08-.31a2,2,0,0,1,0-.43,5.07,5.07,0,0,1,.27-.68,3.65,3.65,0,0,0,.32-1.29c.09-.47.25-.91.33-1.35a6.13,6.13,0,0,0,.09-.69,2.31,2.31,0,0,1,.1-.37,1.17,1.17,0,0,1,.2-.27,1.44,1.44,0,0,1-.09-.2l-.08-.15a.3.3,0,0,1,0-.28.8.8,0,0,1,.1-.18.69.69,0,0,0,0-.13,1.22,1.22,0,0,1,.14-.35c.15-.29.51-.28.72-.32a2.48,2.48,0,0,1,.72,0c.43.05.95.05,1.36.13l1.35-.27h0a1.6,1.6,0,0,1,.47,0,.28.28,0,0,1,.23.21.8.8,0,0,1,0,.25,5.79,5.79,0,0,1,0,.84c0,.55,0,1.1,0,1.66C128.13,247.64,128.08,248.76,128,249.87Zm-.42,0c.12-1.1.2-2.2.23-3.31l0-1.68a5.81,5.81,0,0,0,0-.83c0-.14,0-.2-.08-.19a1.9,1.9,0,0,0-.37,0h0L126,244c-.5-.09-.91-.06-1.4-.11a2.09,2.09,0,0,0-.66,0c-.21,0-.42,0-.5.19a.81.81,0,0,0-.1.29,1.07,1.07,0,0,1-.07.19l-.08.12.11.2a.83.83,0,0,1,.11.45c-.38.39-.22.78-.35,1.28s-.22.91-.3,1.35a4,4,0,0,1-.32,1.38,5.5,5.5,0,0,0-.23.61,2.25,2.25,0,0,0,0,.26,1.7,1.7,0,0,1,.09.36,1.09,1.09,0,0,1,0,.44l-.13.32c0,.1-.09.24-.1.28a.27.27,0,0,0,.08.11,1,1,0,0,0,.48.27,1.39,1.39,0,0,0,.3,0,.44.44,0,0,0,.21,0,1.44,1.44,0,0,1,.36-.2.69.69,0,0,1,.53.15,1.59,1.59,0,0,1,.25.34.77.77,0,0,0,.18.18l.26.15a.23.23,0,0,0,.17,0,1.67,1.67,0,0,1,.72-.19,2.17,2.17,0,0,1,.77.18,5.52,5.52,0,0,0,.59.3,1,1,0,0,0,.48,0s.1-.17.11-.39c0-.45,0-.89,0-1.36A8.14,8.14,0,0,1,127.57,249.83Z" transform="translate(-100.15 -144.68)"/></g><g id="right_thigh"><path d="M131.37,249.83a9.22,9.22,0,0,1,.1,1.42c0,.47-.06.91-.06,1.36,0,.22.06.4.11.39a1,1,0,0,0,.48,0,4.71,4.71,0,0,0,.59-.3,2.22,2.22,0,0,1,.77-.18,1.67,1.67,0,0,1,.72.19.23.23,0,0,0,.17,0l.26-.15a.77.77,0,0,0,.18-.18,1.59,1.59,0,0,1,.25-.34.69.69,0,0,1,.53-.15,1.44,1.44,0,0,1,.36.2.46.46,0,0,0,.21,0,1.39,1.39,0,0,0,.3,0,1,1,0,0,0,.49-.27.32.32,0,0,0,.07-.11s-.06-.18-.1-.28l-.13-.32a1.09,1.09,0,0,1,0-.44,2.66,2.66,0,0,1,.09-.36,2.25,2.25,0,0,0,0-.26,5.5,5.5,0,0,0-.23-.61,4,4,0,0,1-.32-1.38c-.08-.44-.22-.88-.3-1.35s0-.89-.35-1.28a.83.83,0,0,1,.11-.45l.11-.2-.08-.12a1.07,1.07,0,0,1-.07-.19.81.81,0,0,0-.1-.29c-.08-.17-.29-.15-.5-.19a2.09,2.09,0,0,0-.66,0c-.49,0-.9,0-1.4.11l-1.36-.25h0a1.73,1.73,0,0,0-.36,0c-.1,0-.08.05-.08.19a4.69,4.69,0,0,0,0,.83l0,1.68C131.17,247.63,131.25,248.73,131.37,249.83Zm-.42,0c-.09-1.11-.14-2.23-.13-3.35,0-.56,0-1.11,0-1.66a5.79,5.79,0,0,1,0-.84.8.8,0,0,1,0-.25.28.28,0,0,1,.23-.21,1.6,1.6,0,0,1,.47,0h0l1.35.27c.41-.08.93-.08,1.36-.13a2.48,2.48,0,0,1,.72,0c.21,0,.57,0,.72.32a1,1,0,0,1,.14.35.69.69,0,0,0,0,.13.8.8,0,0,1,.1.18.3.3,0,0,1,0,.28l-.08.15a1.44,1.44,0,0,1-.09.2,1.17,1.17,0,0,1,.2.27,2.31,2.31,0,0,1,.1.37,6.13,6.13,0,0,0,.09.69c.08.44.24.88.33,1.35a3.65,3.65,0,0,0,.32,1.29,5.07,5.07,0,0,1,.27.68,2,2,0,0,1,0,.43c0,.13-.08.24-.08.31a1.24,1.24,0,0,0,.17.56,1.74,1.74,0,0,1,.13.37.65.65,0,0,1-.19.51,1.5,1.5,0,0,1-.71.41,2.6,2.6,0,0,1-.39.05.91.91,0,0,1-.45-.09c-.37-.2-.16-.18-.35-.09,0,0,0,.08-.14.23a1.77,1.77,0,0,1-.3.31,2.09,2.09,0,0,1-.34.21.91.91,0,0,1-.5.08c-.38-.11-.41-.2-.6-.18a1.68,1.68,0,0,0-.57.13c-.18.07-.38.22-.65.31a2,2,0,0,1-.4.07.89.89,0,0,1-.48-.07A.65.65,0,0,1,131,253a2,2,0,0,1-.05-.4c0-.47.06-1,.1-1.41A8.86,8.86,0,0,0,131,249.87Z" transform="translate(-100.15 -144.68)"/></g><g id="left_forearm"><path class="cls-1" d="M115.36,236.17a5.4,5.4,0,0,0,.19,2.81c.27,1,.68,2.48,1.11,2.45s.76-2.32.81-3.15a4.49,4.49,0,0,0-.43-2.47c-.13-.26-.5-1-.91-.92S115.43,235.89,115.36,236.17Z" transform="translate(-100.15 -144.68)"/><path d="M115.58,236.22a7.6,7.6,0,0,0,.37,3.44,4.72,4.72,0,0,0,.64,1.56c.08.06,0,.06.14,0a1.27,1.27,0,0,0,.18-.35,5.88,5.88,0,0,0,.22-.85,8,8,0,0,0,0-3.51,2.84,2.84,0,0,0-.89-1.38c-.17-.1-.31,0-.44.31A3.41,3.41,0,0,0,115.58,236.22Zm-.43-.1a3.84,3.84,0,0,1,.33-.89,1.14,1.14,0,0,1,.35-.42.58.58,0,0,1,.62,0,1.92,1.92,0,0,1,.63.75,3.89,3.89,0,0,1,.36.87,5.41,5.41,0,0,1,.15,1.83,13.69,13.69,0,0,1-.17,1.81,5.71,5.71,0,0,1-.21.91,1.34,1.34,0,0,1-.22.45.45.45,0,0,1-.29.19.42.42,0,0,1-.34-.12,4.59,4.59,0,0,1-.8-1.71A6.54,6.54,0,0,1,115.15,236.12Z" transform="translate(-100.15 -144.68)"/></g><g id="left_bi"><path class="cls-1" d="M115.43,227.55a7,7,0,0,0-.6,2.3,7.66,7.66,0,0,0,.43,3.32c.38,1.15.68,1.25.76,1.28.58.15,1.3-.68,1.62-1.19.62-1,.58-2,.51-3.49a5.69,5.69,0,0,0-.51-2.39c-.21-.41-.6-1.2-1.11-1.19S115.71,226.93,115.43,227.55Z" transform="translate(-100.15 -144.68)"/><path d="M115.7,227.68a7.94,7.94,0,0,0-.42,4.45,5.6,5.6,0,0,0,.75,2.05c.11.14.51,0,.77-.24a3.57,3.57,0,0,0,.74-.85,3.92,3.92,0,0,0,.51-2.2,12.85,12.85,0,0,0-.17-2.33,4.49,4.49,0,0,0-.39-1.08,3.42,3.42,0,0,0-.63-.91C116.37,226.06,116,227,115.7,227.68Zm-.55-.25a5.84,5.84,0,0,1,.65-1.08,1.06,1.06,0,0,1,.65-.39.88.88,0,0,1,.71.3,3.66,3.66,0,0,1,.65,1.07,4.47,4.47,0,0,1,.34,1.17,17.69,17.69,0,0,1,.17,2.39,4.52,4.52,0,0,1-.49,2.38,4.23,4.23,0,0,1-.76,1,1.88,1.88,0,0,1-.56.37.77.77,0,0,1-.79-.07,2.88,2.88,0,0,1-.67-1.12,8,8,0,0,1-.37-1.17A7.07,7.07,0,0,1,115.15,227.43Z" transform="translate(-100.15 -144.68)"/></g><g id="left_shoulder"><path class="cls-1" d="M118.49,218.19a3.69,3.69,0,0,0-4.17,3.49,3.5,3.5,0,0,0,3.15,3.41c2.09,0,3.74-2.89,3.06-4.94A3,3,0,0,0,118.49,218.19Z" transform="translate(-100.15 -144.68)"/><path d="M118.42,218.5a3.5,3.5,0,0,0-3.54,2.38,3.21,3.21,0,0,0,1.85,3.82,2.24,2.24,0,0,0,2.25-.35,4,4,0,0,0,1.39-2,3.18,3.18,0,0,0-.15-2.41A2.67,2.67,0,0,0,118.42,218.5Zm.14-.61a3.16,3.16,0,0,1,2,1.85,3.89,3.89,0,0,1,0,2.65,4.69,4.69,0,0,1-1.44,2.22,2.76,2.76,0,0,1-2.62.57,3.9,3.9,0,0,1-2.14-1.75,3.53,3.53,0,0,1-.37-2.81A3.92,3.92,0,0,1,118.56,217.89Z" transform="translate(-100.15 -144.68)"/></g><g id="right_forearm"><path class="cls-1" d="M143.34,236.22a5.4,5.4,0,0,1-.19,2.81c-.27,1-.68,2.48-1.11,2.45s-.76-2.32-.81-3.15a4.49,4.49,0,0,1,.43-2.47c.13-.26.5-1,.91-.92S143.27,235.94,143.34,236.22Z" transform="translate(-100.15 -144.68)"/><path d="M143.52,236.17a6.6,6.6,0,0,1-.41,3.64,4.41,4.41,0,0,1-.79,1.71.4.4,0,0,1-.32.11.49.49,0,0,1-.28-.18,1.56,1.56,0,0,1-.22-.45,5.86,5.86,0,0,1-.21-.9,18.2,18.2,0,0,1-.19-1.81,5.42,5.42,0,0,1,.16-1.83,3.85,3.85,0,0,1,.37-.86,1.86,1.86,0,0,1,.63-.75.57.57,0,0,1,.6,0,1.18,1.18,0,0,1,.34.41A3.9,3.9,0,0,1,143.52,236.17Zm-.37.1a3.16,3.16,0,0,0-.27-.82c-.13-.25-.29-.42-.47-.31a2.91,2.91,0,0,0-.88,1.4,8.31,8.31,0,0,0,0,3.51,5.69,5.69,0,0,0,.22.86,1.14,1.14,0,0,0,.17.35c.09.08.08.09.17,0a4.29,4.29,0,0,0,.65-1.57A7.46,7.46,0,0,0,143.15,236.27Z" transform="translate(-100.15 -144.68)"/></g><g id="right_bi"><path class="cls-1" d="M143.4,227.6a6.75,6.75,0,0,1,.59,2.3,7.7,7.7,0,0,1-.42,3.32c-.38,1.15-.68,1.25-.77,1.28-.58.15-1.29-.68-1.62-1.2-.62-1-.57-2-.51-3.48a5.69,5.69,0,0,1,.51-2.39c.21-.41.6-1.2,1.11-1.19S143.11,227,143.4,227.6Z" transform="translate(-100.15 -144.68)"/><path d="M143.66,227.48a7.07,7.07,0,0,1,.47,4.83,11.19,11.19,0,0,1-.37,1.16,2.78,2.78,0,0,1-.66,1.12.77.77,0,0,1-.79.08,2,2,0,0,1-.56-.37,4.77,4.77,0,0,1-.76-1,4.52,4.52,0,0,1-.49-2.38,19.48,19.48,0,0,1,.17-2.39,4.91,4.91,0,0,1,.35-1.17,3.66,3.66,0,0,1,.65-1.07.89.89,0,0,1,.7-.29,1,1,0,0,1,.64.39A6.12,6.12,0,0,1,143.66,227.48Zm-.52.24c-.28-.67-.68-1.63-1.18-1.1a3.07,3.07,0,0,0-.63.91,4.1,4.1,0,0,0-.39,1.08,12.85,12.85,0,0,0-.17,2.33,3.93,3.93,0,0,0,.52,2.2,3.53,3.53,0,0,0,.73.85c.26.24.66.38.78.25a5.42,5.42,0,0,0,.76-2.06A8.08,8.08,0,0,0,143.14,227.72Z" transform="translate(-100.15 -144.68)"/></g><g id="right_shoulder"><path class="cls-1" d="M140.83,218.24a3.69,3.69,0,0,1,4.17,3.49,3.48,3.48,0,0,1-3.15,3.4c-2.09,0-3.74-3.43-3.06-5.48C139.07,218.79,139.82,218.47,140.83,218.24Z" transform="translate(-100.15 -144.68)"/><path d="M140.73,217.81a4.08,4.08,0,0,1,4.8,2.81,3.7,3.7,0,0,1-.46,3,4.07,4.07,0,0,1-2.32,1.75,2.57,2.57,0,0,1-1.48,0,3,3,0,0,1-1.18-.77,5.74,5.74,0,0,1-1.32-2.32,5.25,5.25,0,0,1-.21-2.68,2.06,2.06,0,0,1,.87-1.2A5.43,5.43,0,0,1,140.73,217.81Zm.2.86c-.82.13-1.61.33-1.92,1.05a3.64,3.64,0,0,0,0,2.46,4.69,4.69,0,0,0,1.37,2.08,2,2,0,0,0,2.14.37,3.06,3.06,0,0,0,1.68-3.61,3.9,3.9,0,0,0-1.23-1.7A2.79,2.79,0,0,0,140.93,218.67Z" transform="translate(-100.15 -144.68)"/></g><g id="head"><g id="hair"><path class="cls-2" d="M154.64,173.43s-.12-.66-.22-1.77a18.91,18.91,0,0,1-.34-2.49,8.63,8.63,0,0,0-.29-3.66,6,6,0,0,0-1.41-2.68c-1.12-1.06-2.53-1.19-2.49-1.4s1.24-.32,2.37.12c.8.32,1.25.8,1.46.64s.1-.59-.12-.89c-.34-.45-.91-.42-1.8-.55-1.82-.26-1.66-.69-2.68-.65-1.39.05-1.9.86-2.61.5a1.66,1.66,0,0,1-.77-1.41c.06,0,.24.46.59.5s.66-.64,1.46-1.26a6.11,6.11,0,0,1,1.21-.64c1.82-.83,2.78-1,2.75-1.2s-1.49-.1-1.86-.08a11.81,11.81,0,0,0-2.06.28,10.5,10.5,0,0,0-2,.7c1-1.08,1.23-2.64,1-2.75-.39-.19-2.24,3.27-2.69,3-.17-.09-.23.36-.15-1a6.24,6.24,0,0,0,0-2,21.14,21.14,0,0,0-.43-2.59,6.35,6.35,0,0,0-1.15-1.94c-.47-.61-.34-.57-1-1.44l-.45-.39.2.72c.76.56-.11.08.32.69a9,9,0,0,1,1.42,3.83,5.36,5.36,0,0,1,.09,1.05c0,.08.06,1-.22,1.09s-.81-.85-.83-.9c-1.23-2.38-1.32-2.53-1.32-2.53a17.66,17.66,0,0,0-2.9-3.84,13.66,13.66,0,0,0-4.43-2.43,6.66,6.66,0,0,0-2.59-.75c-.23,0-1.37,0-1.37,0l.1.25c1.48.51,5,3.56,4.86,3.78s-.77-.21-1.45-.48a33.62,33.62,0,0,0-10.5-1.52,16.36,16.36,0,0,0-7.67,2c-2.06,1.12-4.25,2.62-4.14,2.8s.79-.75,1.71-1c.39-.1,2.07-.52,2.3-.1s-.71,2.27-2.13,3.07c-3.34,1.89-2.83,1.49-5.58,1.48s-2.21-.15-2.27,0,3.54.61,2.4,1.65-5,2.38-4.87,2.76,3.4-.23,3.69.4-2,1.81-3.59,4.05c-2.36,3.34-1.69,7.77-.52,12,1.35,4.94,2.83,10.33,7.36,14.63a19,19,0,0,0,5.46,3.6,5,5,0,0,1,4.41-4.93l.31-.24a5,5,0,0,1,6.65,1.5,5.54,5.54,0,0,1,1.42,2.34,4.4,4.4,0,0,1,.12,2,6.34,6.34,0,0,1-.06,1.07c10.23-1,19.46-6.36,19.75-6.86a4.07,4.07,0,0,1,.37-.57,4.85,4.85,0,0,1,.72-.76c.77-.7,1.53-1.31,1.57-1.34.62-.49.78-.21.73-.4-.18-.7-.49-.8.27-1.91,1.1-1.61,1-2,2.06-3.69a3.49,3.49,0,0,0,.47-1.09,3.07,3.07,0,0,0,0-1.33,4.31,4.31,0,0,0-.63-1.27c-.87-1.41-1.09-1.73-1-1.84s1.26.77,1.74.45-.1-1.9.24-2,.61.76.82.65S154.78,174.16,154.64,173.43Z" transform="translate(-100.15 -144.68)"/></g><g id="face_color"><path class="cls-1" d="M154.42,189.88a7,7,0,0,1-1.12-.87,5.46,5.46,0,0,1-1.41-2.21l-.21,0a1.51,1.51,0,0,0-.89.28c-2.07,1.31-3.79,4.86-4,4.76s.14-.59.19-1.47a6.31,6.31,0,0,0-.19-1.85c-.27-1.18,0-2.21.44-5.23a47,47,0,0,0,.39-6.45,5,5,0,0,0-.55-2.65c-.49-.81-1-.91-1.22-1.74a7.91,7.91,0,0,1,0-1.93c0-.74.07-.85.08-1.18a5.45,5.45,0,0,0-.86-3.23c-.19-.27-1.15-1.63-2.09-1.46-.47.08-.48.46-1.87,1.76-.13.12-.46.42-.91.77-.7.54-1.29,1-1.5.85s.53-2,.44-2a20.84,20.84,0,0,1-2.74,4.23c-1.33,1.45-3.15,2.66-3.57,2.3-.21-.17,0-.62.44-2a16.4,16.4,0,0,0,.83-3.77,12.29,12.29,0,0,1-1.72,3.71,5.7,5.7,0,0,0-.7.95c-.36.62-.31.83-.58,1.34s-.52.57-1.34,1.54-.77,1.2-1.15,1.37c-.69.3-1.41-.21-2.46-.68-1.61-.73-1.8-.37-3.73-1a18,18,0,0,1-6.53-4.13,5.75,5.75,0,0,1-1.35-1.63c-.29-.57-.15-.58-.67-1.84a5.5,5.5,0,0,1-.51-1.47c-.08-.5,0-.72-.13-.76-.28-.11-1.09,1.29-1.53,2.23a6.39,6.39,0,0,0-.57,1.47,16.94,16.94,0,0,0-.2,2.55c0,.45-.06.81-.09,1L108.47,167a38,38,0,0,0-1.15,6.26,36.44,36.44,0,0,0-.06,6.64c.31,3.49.46,5.24,1.21,6.83a10.91,10.91,0,0,1,.89,3.83c0,.34.1.91-.13,1s-.62-.47-1.46-1.09a4.51,4.51,0,0,0-3-1,2.13,2.13,0,0,0-1.32.5c-.16.15-.44.47-.66,2.51a12.33,12.33,0,0,0-.13,2.23,6.81,6.81,0,0,0,.4,2.31,7.45,7.45,0,0,0,1.82,2.26,10.71,10.71,0,0,0,2.82,2.4c.59.27,1,.3,2.56.95a8.17,8.17,0,0,1,1,.45c1.07.65,1.23,1.68,1.78,2.77.81,1.59,2,2.49,4,3.93a21.36,21.36,0,0,0,2.36,1.47c4.19,2.28,6.28,3.42,8.87,3.57,3.14.19,5.5-1.14,8.27-2.7a23.78,23.78,0,0,0,6.47-5.41c1.92-2.32,3.11-3.77,3.32-5.1,0-.18.15-1,.58-1.15.26-.07.46.17.76.32.75.35,1.65-.11,2.43-.51a8.14,8.14,0,0,0,2.74-2.49,8.61,8.61,0,0,0,2.08-4.28A6.83,6.83,0,0,0,154.42,189.88Zm-32.69,5.79a1,1,0,1,1-.07-2A1,1,0,0,1,121.73,195.67Zm14.2.72a1,1,0,0,1-.44.1,1,1,0,0,1-.8-1.56v0a1,1,0,0,1,.15-2,1,1,0,0,1,.82,1.5h.07A1,1,0,0,1,135.93,196.39Z" transform="translate(-100.15 -144.68)"/><path class="cls-3" d="M121.68,190a6.59,6.59,0,0,0-4.08-2.68,4.4,4.4,0,0,0-3.71.77,4.19,4.19,0,0,0-1.15,2.68,5.16,5.16,0,0,0,.26,2,6.53,6.53,0,0,0,1.66,2.55,6.34,6.34,0,0,0,2.3,1.79c.68.28,1.59.66,2.17.26s.27-1,.89-2.69c.31-.8.52,2,.83,1.95s1-1,1.2-.83c.08,0,.18-1.15.27-1.15.86,0,.47-.14.18.45.24.34.44.59.59.54C123.53,195.55,123.5,192.44,121.68,190Z" transform="translate(-100.15 -144.68)"/><path class="cls-3" d="M142.81,187a4.24,4.24,0,0,0-3.7-.77,6.32,6.32,0,0,0-3.83,2.92c-1.94,2.75-2,6-1.6,6.12.11,0,.27-.22.47-.58-.51-.56-.31-.53.67-.53.16,0,.58,1.87.7,1.92a2.87,2.87,0,0,1,1-.49c.38,0,0-2.3.19-2,.81,1.2.27,2.24.89,2.69s1.5,0,2.17-.26a6,6,0,0,0,2.3-1.79,7.92,7.92,0,0,0,1.41-2.32,5.24,5.24,0,0,0,.51-2.27A4,4,0,0,0,142.81,187Z" transform="translate(-100.15 -144.68)"/></g><path d="M131,214.65c2.32-1.44,4.61-2.94,7-4.32,5.46-3.19,8.63-7.74,9-14.21.14-2.65,3.37-5.85,6.05-6.53a2,2,0,0,0,.49-.29c-.55-.77-1.08-1.54-1.67-2.28-.35-.45-.71-.16-1,.08a9.25,9.25,0,0,0-3.76,5.52c-1.12-4.39,0-8.27.1-12.14a24.21,24.21,0,0,0-.38-6.17c-.33-1.45-1.82-2.54-.88-4.64.59-1.33-1.09-3.38-2.45-4.72-.1-.1-.52,0-.7.13-1.36,1-2.7,2-4.12,3.1l1.15-4c-1.22,4.12-2.83,7.82-7.63,8.88l1.6-4.67c-1.5,2.66-2.79,5.39-5.2,7.36,2.49-3.22,4-7,5.93-11.07a14.65,14.65,0,0,1-1,6.49c-.09.33-.13.67-.2,1a4.94,4.94,0,0,0,1.08-.38c3.57-2.26,4.11-6,4.81-9.73a13.08,13.08,0,0,1,.41-1.35c.66.26.54.9.63,1.39a9.37,9.37,0,0,1-.52,4.64c1.05-.79,1.88-1.14,2.25-1.76,1.29-2.13,2.05-.74,2.77.36,1.39,2.11,2.8,4.24,2.07,7-.1.37.18.84.4,1.75l.37-1.88c1.15,5.73,0,11.39-.23,17.06l-.06.33,0-.34a1.94,1.94,0,0,0,.33-.23c3.62-4,5.44-3.65,7.43,1.47,1.34,3.44-2.73,11-6.35,10.69-2.72-.2-2.09,1.6-2.74,2.57-2.66,4-5.84,7.42-10.33,9.42v0c0-.1,0-.19,0-.29v0l-.56.26h0l-4,1.39Zm5.64-2.51h0Zm.82-.54v0Zm.82-.54v0ZM151,195.54c-.84.53-1,1.53-2.14,1.3l.61-.77c.51-.64.71-1.39.05-1.94-.86-.71-.8.49-1.2.74-1.63,1-.33,2.6-.73,3.87-.19.58-.25,1.17.39,1.56a1.39,1.39,0,0,0,1.85-.26c1.37-1.37,2.62-2.87,4.05-4.18,1.75-1.59,1.15-3.25.44-5a1,1,0,0,0-1.34-.6,8.41,8.41,0,0,0-1.79.86.83.83,0,0,0,.16.48c1.92,1.88,1.58,4.19-1,5.82Zm.5-.29c.67-.93,1-1.85.26-2.75-.4-.5-1.2-.75-1.55-.25C149.06,193.8,152.19,193.67,151.45,195.25Zm-4.4,2.7,0-.07H147Zm2.95-4h.1l0-.11Z" transform="translate(-100.15 -144.68)"/><path d="M112.69,164.6c-1.09,2.28-2.23,4.55-.91,7.4-1.86-.86-2.43-2.5-3.38-4.24-1.19,7.12-1.22,13.82.75,20.53a46.88,46.88,0,0,1,1.79,9.9c.55,8,6.14,11.37,12.37,14.3,1,.45,2,.88,3,1.31h0l-1.61-.28-.82-.26-.09-.08h-.08l.19.07.81.26,1.6.59h0l4.69.58h0c-2.23,1-4.38.25-6.42-.5-4.58-1.7-9.32-4.28-11.45-8.26-1.93-3.59-5.13-3.51-7.48-5.43-.77-.64-1.9-.85-2.47-2.11l5.64,3.09a1.58,1.58,0,0,0,1.88,0c.7-.51.21-1.07.12-1.59-.13-.76-.34-1.5-.52-2.25a1.78,1.78,0,0,0-1.2-1.5c-.12,0-.41.15-.47.3a2.11,2.11,0,0,0,.13,2c.19.33,1,.69.44,1s-1.07-.28-1.31-.85c-.13-.33-.08-.73-.22-1.05-.23-.52.44-1.58-.41-1.51s-.76,1.18-.71,1.93c.11,1.4,1.37,1.78,2.63,2.66-1.77-.25-2.84-.89-3.21-2.27s-.06-2.7,1.91-3.42l-3.52-1.08c-.3-.1-.84.16-.78-.43,0-.12.62-.28.93-.24a12.59,12.59,0,0,1,5.18,2.2c-.1-3.37-2.32-4.61-5.76-5.82l2.61.16,0,0a30.24,30.24,0,0,1-5.78-21.51c.31-3.44.27-3.44,5.15-7.67-1.68.13-3,.25-4.39.33a3.14,3.14,0,0,1-.87-.24c.15-.24.25-.58.47-.7a36,36,0,0,1,6.13-2.76l-5,3-.11.06.09-.08c1.35,0,2.71-.11,4.06-.1.26,0,.54.26.75.45a.75.75,0,0,1-.28.53c-8.31,3.08-5,10-4.93,15.64.06,5,3.52,11.1,7.36,14.63a44.29,44.29,0,0,1-.56-26.34c.61,1.84.61,3.75,2,5.24.34-2,.17-4.21,2.17-5.44Z" transform="translate(-100.15 -144.68)"/><path d="M114.12,180.24c4.2,1.15,7.63-.16,10.57-3.21.27-.27.79-.29,1.19-.43a4.57,4.57,0,0,1,0,1.28c-.63,2.45-4.12,4.79-6.64,4.42-3.56-.52-6.21.88-8.24,3.73-.26.37-1,.89-1.11.81-.58-.42-.08-1.06.12-1.42.9-1.61,1.93-3.16,2.92-4.72A1,1,0,0,1,114.12,180.24Z" transform="translate(-100.15 -144.68)"/><path d="M140.91,178.5l-.25-2,4.3,7.05c-3.06-3.64-6.64-2.4-10.21-1.46-1.21.32-1.84-.95-2.58-1.54-1.09-.87-1.8-2.21-3-3.77,1.35.43,2.43.46,3,1,2.3,2.17,4.65,1.39,7,.33.81-.37,1.31-.37,1.76.39Zm-1,1.33,0,0Zm-8.69-1.33h0l.29.27.27.27.25.25,0,0,0,0-.28-.25-.27-.26Zm8.85.11s.07,0,.08,0,0-.07,0-.1l-.13.07Z" transform="translate(-100.15 -144.68)"/><path d="M132.77,148.09l-4.06-2.2h0c6.46,1.86,11.65,5.17,13.7,12a4.27,4.27,0,0,1,0,1.13l-1.47-1c-.76,2.52-2.56.58-3.28.25-1.36-.62-1.26-.22-1.26.81,0,.41-.1,1-.37,1.18-.44.26-.81-.17-1-.61l0,0c.42,0,.81,0,.82-.6,0-1.42.14-2.73,2-1.21a.42.42,0,0,0,.38,0c1-.56,1-.56,1.78.44.71-1.94-.88-3.16-1.12-4.86,1,1.51,2,3,2.95,4.54l0,0c-1.15-3.71-2.66-7-6.75-8.52-7.53-2.77-14.92-3.13-22.19.67-.51.26-2.09,1-2,1.29s3.64-.85,3.79-.47-3.7,1.76-4.37,1.54a.54.54,0,0,1-.3-.21.48.48,0,0,1,.06-.56,8.65,8.65,0,0,1,1.84-1.74c6-3.66,12.37-3.91,19-2.51l2,.44.19.06Z" transform="translate(-100.15 -144.68)"/><path d="M144.73,158.1c2.05-.79,4-1.95,6.25-2.06.68,0,1.63-.11,1.72.66.13,1.1-.85.24-1.29.44-1.1.49-2.27.83-3.41,1.24l0,0a11.63,11.63,0,0,1,3.73-1.81,15.87,15.87,0,0,0-7.06,2.44c-.45.26-.86.62-1.33.27s.06-.79.21-1.14c1.07-2.46.12-7-1.85-8.67l-.23-.63,0,0,0,.05.24.6a11.87,11.87,0,0,1,1.28,6c-.95-3.47-1.36-7.22-5.7-9.14,4.12-.25,7.17,4.62,7.34,10.66a21.88,21.88,0,0,1,6.54-5.37c-2.55,2.48-5.13,3.86-6.44,6.46Z" transform="translate(-100.15 -144.68)"/><path d="M151.85,161.89c4,3.34,2.67,8.13,3.38,12.36,0,.12-.28.3-.44.45l0,0c-.37-2.66-.62-5.36-1.14-8-.83-4.16-2.17-5.08-7.2-5.33-1-.05-1.92-.06-.92-1.39l0,0c2.12.05,4.23.06,6.34.18a4.13,4.13,0,0,1,1.76.64c.67.4,1.42,1.11,1,1.84-.56.93-1.08-.2-1.63-.39l-1.14-.39-.08-.07h-.07Zm2.23.38c-2-2.53-4.72-1.41-7.18-1.64C149.3,161.15,151.94,160.59,154.08,162.27Z" transform="translate(-100.15 -144.68)"/><path d="M143.14,192.91a1.58,1.58,0,0,1-.59,1.61h0l-1.4,1.22,1.83.09c-2.46.34-4.53,1.69-6.84,2.4l1.35-.88-2.76-.24,3.4-.43c-2.88.51-5.1.33-4.24-3.58v0a.46.46,0,0,0,.26,0,.26.26,0,0,0,.07.1s.07,0,.1,0l-.19-.09c1.68-1.39,2.77-.24,3,1.15.5,3,2.15,1.72,3.4,1.05a13.36,13.36,0,0,0,2.62-2.44Zm-7.56,2.27-.35.24c.09,0,.2.13.29.12s.2-.1.3-.15Zm-.76-1.38c.11,0,.23.14.25.12a1.76,1.76,0,0,0,.24-.3c-.08,0-.18-.13-.22-.11A1.92,1.92,0,0,0,134.82,193.8Z" transform="translate(-100.15 -144.68)"/><path d="M119.2,198.33a14.88,14.88,0,0,0-7.68-.81c1.63-1.26,3-.84,4.42-.56l.12,0h-.13l-2-2.25.14-.12a9.86,9.86,0,0,0,2.27,1.72c1.22.46,2.83,1.72,3.22-1.12.18-1.33,1.19-2.61,2.93-1.25l0,.06,0-.08c.92,1.52.72,2.58-.89,3.66-.83.56-1.71.19-2.39.74Zm.53-.81.08,0h-.1l-.17-.19-.06.12Zm1.78-1.28a1.41,1.41,0,0,0-.4-.21c-.09,0-.18.11-.26.17a1.4,1.4,0,0,0,.29.16C121.24,196.37,121.34,196.3,121.51,196.24Zm.54-1.75a2.37,2.37,0,0,0-.44-.17c-.06,0-.13.07-.2.11a1.44,1.44,0,0,0,.22.27S121.77,194.64,122.05,194.49Z" transform="translate(-100.15 -144.68)"/><path d="M117.31,206.17c-.25-.15-.92.09-.68-.5a1.82,1.82,0,0,1,1.6-1.24c.53,0,.32.39.19.67l-.08,0h.09c.3.17.58.46.89.49a36.77,36.77,0,0,0,19.7-3.36l-1.28-.26a5.17,5.17,0,0,1,4.59.59c-2.29-1.15-3.85.66-5.65,1.33-6.05,2.26-12.21,3.25-18.63,2-.33-.06-.64-.16-.76.29Z" transform="translate(-100.15 -144.68)"/><path d="M127.09,197.75h1.65c-.54-.16-1.56.92-2.85,1-.86.06-.64.86-.7,1.36-.09.78.51.37.84.34,1.07-.07,2.13-.17,3.2-.27h0c1,.94,2.06.08,3.09.07h0c-2.09,1.89-4.47,1.81-6.94,1a1,1,0,0,1-.74-1.14c.16-.81.05-1.76,1-2.18l2.81-1.26-4.8.7a27.47,27.47,0,0,1,9.59-1.17l-6.14,1.57Zm1.3,2.9s-.06-.07-.1-.07-.06,0-.09.07.06.07.09.07S128.36,200.68,128.39,200.65Z" transform="translate(-100.15 -144.68)"/><path d="M112.45,190.45c.13-3.08,1.51-4.22,4.94-4.33,2.62-.08,5.54,4.09,6.12,9.2-1.17-2.9-1.72-5.67-4.33-7.07C116.31,186.7,114,187.41,112.45,190.45Z" transform="translate(-100.15 -144.68)"/><path d="M112.71,164.63a8.36,8.36,0,0,1,0-1.22c.08-.88,0-2.37.88-2.29s-.16,1.17-.14,1.85c.14,4.2,2.65,6.89,5.81,9.12,2.34,1.64,6.65,2.62,9.23,3.71-6.63-1.2-13.46-4.35-15.75-11.2Z" transform="translate(-100.15 -144.68)"/><path d="M133.9,193.1l-.67,1.24c.36-4.72,3.57-9.18,6.4-9,.2,0,2.62-.17,3.87,1.64a4.68,4.68,0,0,1,.16,4.29c.08-2.15-.68-3.94-2-4.59a3.4,3.4,0,0,0-2-.2c-2.8.41-5.4,3.52-5.7,6.65Z" transform="translate(-100.15 -144.68)"/><path d="M128.71,145.89l-2.89-.34c5.15-2.94,14.66,1.93,15.7,8.52-2.74-6-6.67-9-12.84-8.17Z" transform="translate(-100.15 -144.68)"/><path d="M154.79,174.7l.6,1.18-1.46-1,.68,2.59c-.63,0-.82-.95-1.42-.55a3.28,3.28,0,0,0,.5,1.24c1.4,2.09-.53,3.38-1.19,5a4.61,4.61,0,0,1-.72,1.15,26.22,26.22,0,0,0-1.26,2.36,16,16,0,0,1,1.89-4.87,4.42,4.42,0,0,0,1-2.54,3.84,3.84,0,0,0-1.19-2.44c-.21-.23-.22-.63-.33-.95.27.07.55.14.82.23s.48.2.72.31c0-.29,0-.57,0-.85.05-.47-.05-1.15.22-1.37.55-.43.74.42,1.15.6Z" transform="translate(-100.15 -144.68)"/><path d="M100.74,154.33a23,23,0,0,0,6.65,1,8.54,8.54,0,0,0,7.19-4.22,3.72,3.72,0,0,1-1.09,2.37,5.86,5.86,0,0,1-2.91,1.72c-3.22,1-5.87.06-6,.44,0,.17.4.54,2.56,1.44Z" transform="translate(-100.15 -144.68)"/><path d="M103.94,189.58a14.92,14.92,0,0,0-.83,8C101.62,196.24,102.12,190.57,103.94,189.58Z" transform="translate(-100.15 -144.68)"/><path d="M148,158.38c1.15,1.14,3,0,4.14,1.26-2.23-.1-4.48-.71-6.62.39l0,0c-.61,0-.9-.26-.25-.6a5,5,0,0,1,2.72-1Z" transform="translate(-100.15 -144.68)"/><path d="M128.34,208.77c1.08-.09,1.72-.43,2.28.12a.74.74,0,0,1-.26.52C129.7,209.71,129.22,209.33,128.34,208.77Z" transform="translate(-100.15 -144.68)"/><path d="M132.3,200.25c-.42-.63-.15-1.66-1.16-1.94-.06,0-.07-.25-.09-.38.19,0,.5-.11.57,0,.5.69,1.31,1.32.66,2.34Z" transform="translate(-100.15 -144.68)"/><path d="M133.82,159.44c-.52.59-1.21.49-2.12.49l2.14-.48Z" transform="translate(-100.15 -144.68)"/><path d="M129.23,200.19l1.08-.28h0l-1.08.28Z" transform="translate(-100.15 -144.68)"/><path d="M130.31,199.91l.51-.12-.53.11Z" transform="translate(-100.15 -144.68)"/><path d="M129.1,160.19h-.18l0-.08Z" transform="translate(-100.15 -144.68)"/><path d="M143.66,191.27h0" transform="translate(-100.15 -144.68)"/><path d="M143.14,192.91l0,0" transform="translate(-100.15 -144.68)"/><polygon points="33.7 14.77 33.79 14.75 33.68 14.76 33.7 14.77"/><path d="M126.26,213.8v.27h0v-.29Z" transform="translate(-100.15 -144.68)"/><path d="M135.51,213.25h0Z" transform="translate(-100.15 -144.68)"/><path d="M143.66,191.27h0Z" transform="translate(-100.15 -144.68)"/><path d="M142.55,194.52h0Z" transform="translate(-100.15 -144.68)"/><path d="M100.48,154l0,0Z" transform="translate(-100.15 -144.68)"/><path d="M100.76,154.31l-.28-.3,0,0,.28.3Z" transform="translate(-100.15 -144.68)"/><path d="M119.18,198.34h0Z" transform="translate(-100.15 -144.68)"/><path d="M135,159.74l0,0Z" transform="translate(-100.15 -144.68)"/><path d="M117.29,206.18l.28.29v0l-.27-.28Z" transform="translate(-100.15 -144.68)"/><path d="M117.57,206.47v0Z" transform="translate(-100.15 -144.68)"/></g></svg>