<?xml version="1.0" encoding="utf-8"?>
<!-- Generator: Adobe Illustrator 19.2.0, SVG Export Plug-In . SVG Version: 6.00 Build 0)  -->
<svg version="1.1" id="Layer_1" xmlns="http://www.w3.org/2000/svg" xmlns:xlink="http://www.w3.org/1999/xlink" x="0px" y="0px"
	 viewBox="0 0 1920 1080" style="enable-background:new 0 0 1920 1080;" xml:space="preserve">
<style type="text/css">
	.st0{fill:#F8C09D;}
	.st1{fill:#065082;}
	.st2{fill:#333333;}
	.st3{fill:#EF937E;}
	.st4{fill:#F2F2F2;}
	.st5{fill:#1561A0;}
	.st6{fill:#22B573;}
	.st7{fill:#1B965B;}
	.st8{fill:#F6AE8D;}
	.st9{fill:#AF4135;}
	.st10{clip-path:url(#SVGID_2_);fill:#ACD7E5;}
	.st11{fill:#DD2C39;}
	.st12{fill:#C1272D;}
	.st13{fill:#AF232D;}
	.st14{fill:#E6E6E6;}
	.st15{opacity:0.25;fill:#FFFFFF;}
	.st16{fill:#4D4D4D;}
</style>
<path class="st0" d="M1089.2,292.2L1089.2,292.2c1.8,3.1,5.7,4.1,8.7,2.3l25.5-14.7c3.1-1.8,4.1-5.7,2.3-8.7l0,0
	c-1.8-3.1-5.7-4.1-8.7-2.3l-25.5,14.7C1088.5,285.2,1087.4,289.1,1089.2,292.2z"/>
<path class="st0" d="M1207.6,300.9L1207.6,300.9c5.6,8.5,3.2,20-5.3,25.6L1087.6,402c-8.5,5.6-20,3.2-25.6-5.3l0,0
	c-5.6-8.5-3.2-20,5.3-25.6l114.7-75.5C1190.6,290.1,1202,292.4,1207.6,300.9z"/>
<path class="st0" d="M1207.1,321.8L1207.1,321.8c-5.7,8.4-17.2,10.6-25.6,4.9l-106.7-75.1l20.7-30.5l106.7,75.1
	C1210.7,301.9,1212.9,313.4,1207.1,321.8z"/>
<path class="st1" d="M1143.8,380.1l-36.9-55.7l-58.8,39c-15.4,10.2-19.6,30.9-9.4,46.3l0,0c10.2,15.4,30.9,19.6,46.3,9.4
	L1143.8,380.1z"/>
<path class="st0" d="M784.6,468L784.6,468c5.4,8.6,16.8,11.2,25.5,5.7l116.1-73.5c8.6-5.4,11.2-16.8,5.7-25.5v0
	c-5.4-8.6-16.8-11.2-25.5-5.7l-116.1,73.5C781.7,448,779.1,459.4,784.6,468z"/>
<path class="st1" d="M870,459.5L832.8,404l58.6-39.2c15.3-10.3,36.1-6.1,46.4,9.2l0,0c10.3,15.3,6.1,36.1-9.2,46.4L870,459.5z"/>
<path class="st2" d="M1004.3,145.6l7-2c7.3-2.1,15,2.1,17.1,9.5l18.7,64.8l-20.3,5.9L1004.3,145.6z"/>
<ellipse transform="matrix(0.9609 -0.277 0.277 0.9609 -23.2348 294.9995)" class="st0" cx="1032.3" cy="229.7" rx="20.7" ry="20.7"/>
<path class="st3" d="M1039.7,230.6c-1.1-3.9-5.2-6.1-9.1-5c-1.1,0.3-2,0.8-2.8,1.5c0.6-2.4,2.5-4.5,5.1-5.2c3.9-1.1,7.9,1.1,9.1,5
	c0.8,2.8-0.1,5.7-2.2,7.5C1040.1,233.2,1040.1,231.9,1039.7,230.6z"/>
<path class="st0" d="M785.9,445.6L785.9,445.6c-7.9,6.5-9,18.1-2.6,26l87.1,106.3c6.5,7.9,18.1,9,26,2.6l0,0c7.9-6.5,9-18.1,2.6-26
	l-87.1-106.3C805.4,440.3,793.8,439.1,785.9,445.6z"/>
<polygon class="st0" points="963,901 935,901 913,599.5 970,599.5 "/>
<polygon class="st4" points="965,869.3 932.4,868.3 933.5,913.4 961.8,914.7 "/>
<polygon class="st5" points="964.3,878.8 932.8,878 933.2,887.4 963.7,887.9 "/>
<polygon class="st0" points="1018.8,901 1046.8,901 1068.8,599.5 1011.8,599.5 "/>
<polygon class="st4" points="1016.8,869.3 1049.3,868.3 1048.3,913.4 1019.9,914.7 "/>
<polygon class="st5" points="1017.5,878.8 1049,878 1048.6,887.4 1018.1,887.9 "/>
<path class="st4" d="M1019.5,920c0,0,3.8,3.8,13.6,3.4c9.8-0.5,14.8-4.7,14.8-4.7s-0.5,7.3,9,17c9.5,9.7,21.6,4.2,29,17.7
	c18.9,34.1-22.9,52.6-40.1,33.6l-24.6-31c-1-1.2-1.5-2.8-1.5-4.4L1019.5,920z"/>
<path class="st5" d="M1019.5,908c0,0,3.8,3.8,13.6,3.4c9.8-0.5,14.8-4.7,14.8-4.7s-0.5,7.3,9,17c9.5,9.7,19.1,10.6,26.6,24.1
	c14.9,27.2-17.1,47.2-35.8,27.5l-25.2-31.7c-1.8-2.3-2.8-5.2-2.9-8.2L1019.5,908z"/>
<path class="st4" d="M1055.8,952c1.1,1.7,3.5,1.9,4.8,0.3c1.5-1.9,7.7-6.6,10.3-7.7c1.4-0.6,2.6-1,3.5-1.2c1.7-0.5,2.6-2.3,1.9-4
	l-0.2-0.5c-0.6-1.5-2.3-2.3-3.9-1.6c-3.7,1.5-14.2,7.3-16.6,11.8C1055.2,950,1055.3,951.1,1055.8,952L1055.8,952z"/>
<path class="st4" d="M1047,943.8c1.1,1.7,3.5,1.9,4.8,0.3c1.5-1.9,7.7-6.6,10.3-7.7c1.4-0.6,2.6-1,3.5-1.2c1.7-0.5,2.6-2.3,1.9-4
	l-0.2-0.5c-0.6-1.5-2.3-2.3-3.9-1.6c-3.7,1.5-14.2,7.3-16.6,11.8C1046.4,941.8,1046.4,942.9,1047,943.8L1047,943.8z"/>
<path class="st4" d="M1037.9,935.1c1.1,1.7,3.5,1.9,4.8,0.3c1.5-1.9,7.7-6.6,10.3-7.7c1.4-0.6,2.6-1,3.5-1.2c1.7-0.5,2.6-2.3,1.9-4
	l-0.2-0.5c-0.6-1.5-2.3-2.3-3.9-1.6c-3.7,1.5-14.2,7.3-16.6,11.8C1037.3,933.1,1037.4,934.2,1037.9,935.1L1037.9,935.1z"/>
<path class="st4" d="M962.2,920c0,0-3.8,3.8-13.6,3.4s-14.8-4.7-14.8-4.7s0.5,7.3-9,17c-9.5,9.7-21.6,4.2-29,17.7
	c-18.9,34.1,22.9,52.6,40.1,33.6l24.6-31c1-1.2,1.5-2.8,1.5-4.4L962.2,920z"/>
<path class="st5" d="M962.2,908c0,0-3.8,3.8-13.6,3.4s-14.8-4.7-14.8-4.7s0.5,7.3-9,17c-9.5,9.7-19.1,10.6-26.6,24.1
	C883.4,975,915.4,995,934,975.3l25.2-31.7c1.8-2.3,2.8-5.2,2.9-8.2L962.2,908z"/>
<path class="st4" d="M925.9,952c-1.1,1.7-3.5,1.9-4.8,0.3c-1.5-1.9-7.7-6.6-10.3-7.7c-1.4-0.6-2.6-1-3.5-1.2c-1.7-0.5-2.6-2.3-1.9-4
	l0.2-0.5c0.6-1.5,2.3-2.3,3.9-1.6c3.7,1.5,14.2,7.3,16.6,11.8C926.5,950,926.5,951.1,925.9,952L925.9,952z"/>
<path class="st4" d="M934.7,943.8c-1.1,1.7-3.5,1.9-4.8,0.3c-1.5-1.9-7.7-6.6-10.3-7.7c-1.4-0.6-2.6-1-3.5-1.2
	c-1.7-0.5-2.6-2.3-1.9-4l0.2-0.5c0.6-1.5,2.3-2.3,3.9-1.6c3.7,1.5,14.2,7.3,16.6,11.8C935.4,941.8,935.3,942.9,934.7,943.8
	L934.7,943.8z"/>
<path class="st4" d="M943.8,935.1c-1.1,1.7-3.5,1.9-4.8,0.3c-1.5-1.9-7.7-6.6-10.3-7.7c-1.4-0.6-2.6-1-3.5-1.2
	c-1.7-0.5-2.6-2.3-1.9-4l0.2-0.5c0.6-1.5,2.3-2.3,3.9-1.6c3.7,1.5,14.2,7.3,16.6,11.8C944.4,933.1,944.3,934.2,943.8,935.1
	L943.8,935.1z"/>
<polygon class="st6" points="985,776.2 892.8,776.2 903,599.5 985,599.5 "/>
<polygon class="st7" points="893.6,762 985,762 985,746 894.5,746 "/>
<polygon class="st6" points="1088.2,776.2 996,776.2 996,599.5 1067.2,599.5 "/>
<polygon class="st7" points="1084.6,746 996,746 996,762 1086.5,762 "/>
<path class="st6" d="M985.8,681.7h-1.4c-45,0-81.6-37-81.6-82v-0.3h164.6v0.3C1067.4,644.8,1030.9,681.7,985.8,681.7z"/>
<path class="st5" d="M1067.2,599.5c0,0-20.2,18.5-82.2,18.5s-82-18.5-82-18.5V377.8c0-10.6,8.6-19.2,19.2-19.2H1048
	c10.6,0,19.2,8.6,19.2,19.2V599.5z"/>
<path class="st1" d="M948.1,359l-0.1,2.4c-0.1,20.2,16,36.7,36,37.2v0c21,0.5,38-15.9,38.1-36.7l0.1-2.8H948.1z"/>
<path class="st0" d="M984.4,386.4L984.4,386.4c-13.3-0.3-24-11.3-23.9-24.6l0.1-23.1l49,1.3l-0.1,22.1
	C1009.4,375.7,998.1,386.7,984.4,386.4z"/>
<path class="st8" d="M960.5,356c7.8,2.8,16,2.2,24.2,2.2c8.4,0,16.8-3.6,24.8-6.4l0.1-11.9l-49-1.3L960.5,356z"/>
<path class="st0" d="M994.8,346.8c-34.8,10-77.6-7.5-88.8-46.3L872.5,184l139.7-40.3l33.6,116.5
	C1056.9,299,1029.6,336.8,994.8,346.8z"/>
<rect x="875.4" y="235.1" transform="matrix(0.9609 -0.277 0.277 0.9609 -35.2853 257.1783)" class="st2" width="34.2" height="36.8"/>
<ellipse transform="matrix(0.9609 -0.277 0.277 0.9609 -39.4924 258.9451)" class="st0" cx="896.6" cy="269.2" rx="20.7" ry="20.7"/>
<path class="st3" d="M893.4,273.2c-1.1-3.9,1.1-7.9,5-9.1c1.1-0.3,2.2-0.4,3.2-0.2c-1.8-1.7-4.5-2.5-7-1.7c-3.9,1.1-6.1,5.2-5,9.1
	c0.8,2.8,3.2,4.8,5.9,5.2C894.5,275.6,893.8,274.5,893.4,273.2z"/>
<path class="st3" d="M987.1,252.4l4.1,14.4c0.2,0.7,1.1,0.9,1.8,0.7l8.5-2.4c2.3-0.7,2.8-3.7,0.8-5.1l-13.2-9
	C988.2,250.3,986.8,251.3,987.1,252.4z"/>
<path class="st2" d="M884.3,180.1l0.1,0.3l-9.7,2.7c-10.3,2.9-16.3,13.6-13.3,23.9v0l3.7,12.8l9.5,33l31.6-8.2l-2.5-9.7
	c-1.7-6.4,2.2-13,8.6-14.6l115.6-28.5c12.3-3.2-8.9-36.5-12.1-48.8C1015.6,143.1,881,167.7,884.3,180.1z"/>
<path class="st2" d="M875.7,182.5c-6.2-14.8-6.7-24.1,1.2-35.7c5.1-7.5,16.6-12.5,21.1-13.7c2.9-0.8,6.1-1.1,9.1-0.4
	c6.4,1.4,11.5,7.8,11.6,14.6c2.3-5.1,5.4-9.8,9-14c4.7-5.3,10.8-9.8,17.8-10c7-0.2,14.5,5.3,14.7,12.6c3.1-2.8,5.4-6.5,8.4-9.5
	c4.8-4.8,11.2-7.7,17.9-8.1c2.5-0.1,5.1,0.1,7.5,0.9c4.9,1.6,8.9,5.6,11.6,10.2c2.7,4.6,15.6,29.9,8.5,51.7
	c-0.9,2.8-11.8,3.7-14.7,4.1L875.7,182.5z"/>
<rect x="864.9" y="195.1" transform="matrix(0.9609 -0.277 0.277 0.9609 -20.0659 272.0826)" class="st5" width="175.9" height="24"/>
<g>
	<path class="st0" d="M878.3,576.7l-7.6,8.4l26.3,23.8c2.3,2.1,5.9,1.9,8-0.4h0c2.1-2.3,1.9-5.9-0.4-8L878.3,576.7z"/>
	<path class="st0" d="M886.3,568.1l-7.3,8.7l32.8,27.7c2.4,2,6,1.7,8-0.7l0,0c2-2.4,1.7-6-0.7-8L886.3,568.1z"/>
	<path class="st0" d="M896.2,562.9l-6.4,9.4l35.6,24c2.6,1.8,6.1,1.1,7.9-1.5h0c1.8-2.6,1.1-6.1-1.5-7.9L896.2,562.9z"/>
	<path class="st0" d="M896.1,553.3l-4.5,10.4l39.4,17c2.9,1.2,6.2-0.1,7.5-3l0,0c1.2-2.9-0.1-6.2-3-7.5L896.1,553.3z"/>
	<path class="st0" d="M890.6,547.4l0.7,11.3l25.8-1.5c3.1-0.2,5.5-2.9,5.3-6v0c-0.2-3.1-2.9-5.5-6-5.3L890.6,547.4z"/>
	<path class="st0" d="M897.6,549l7.5,5.1c1.4,0.9,1.7,2.8,0.8,4.2l-22.2,32.9c-0.9,1.4-2.8,1.7-4.2,0.8l-7.5-5.1
		c-5.2-3.5-6.6-10.5-3.1-15.7l12.9-19.1C885.4,546.9,892.4,545.5,897.6,549z"/>
</g>
<path class="st9" d="M968.9,285.1c5.9,20.2,23.6,32.9,39.4,28.3h0c15.9-4.6,23.9-24.8,18-45.1"/>
<ellipse transform="matrix(0.9596 -0.2812 0.2812 0.9596 -32.468 278.7396)" class="st2" cx="954.8" cy="252.5" rx="5" ry="8.8"/>
<ellipse transform="matrix(0.9596 -0.2812 0.2812 0.9596 -24.9863 295.155)" class="st2" cx="1015.8" cy="234.6" rx="5" ry="8.8"/>
<path class="st3" d="M1026.6,293.4c-4.3-4.2-13.5-5.2-22.9-1.8c-10.8,3.8-17.9,11.9-16.6,18.4c6.6,4,14.1,5.4,21.2,3.3l0,0
	C1017.3,310.7,1023.7,303.1,1026.6,293.4z"/>
<g>
	<defs>
		<path id="SVGID_1_" d="M968.9,285.1c5.9,20.2,23.6,32.9,39.4,28.3h0c15.9-4.6,23.9-24.8,18-45.1"/>
	</defs>
	<clipPath id="SVGID_2_">
		<use xlink:href="#SVGID_1_"  style="overflow:visible;"/>
	</clipPath>
	<path class="st10" d="M1016.2,286.2c0,0-17.6,1.6-27.9,14.6c-8.7,11-6.9,20.3-6.9,20.3l32.9-3.3c0,0-9.3-13.8,5.2-24.5
		L1016.2,286.2z"/>
</g>
<g>
	<path class="st11" d="M1079.1,232.4c-1.2-0.3-2.6-0.2-3.7,0.3l-22,10.1c-5.2,2.4-9.3,6.6-11.5,11.8l-2.1,4.9
		c-0.4,1-1.3,1.8-2.2,2.3c-2.2,1-3.3,3.7-2.2,5.9l10.9,23.7c1,2.2,3.7,3.2,6,2.1c1-0.5,2.1-0.6,3.2-0.2l5.2,1.6
		c5.4,1.6,11.3,1.3,16.5-1.1l22-10.1c1.2-0.5,2.1-1.5,2.7-2.6l1-2c0.7-1.5,2.4-2.2,4-1.8l2.1,0.5c1.2,0.3,2.6,0.2,3.7-0.3l40.8-18.9
		c5.3-2.5,7.7-8.8,5.2-14.1l-14.6-31.6c-2.5-5.3-8.8-7.7-14.1-5.2l-40.8,18.9c-1.2,0.5-2.1,1.5-2.7,2.6l-1,2c-0.7,1.5-2.4,2.2-4,1.8
		L1079.1,232.4z"/>
	
		<rect x="1026" y="275.1" transform="matrix(0.4191 0.908 -0.908 0.4191 858.7778 -785.9194)" class="st12" width="35.2" height="6.1"/>
	<path class="st13" d="M1107,277.4l-21.6-46.9l-0.2,0.5c-0.7,1.5-2.5,2.3-4.1,1.9l-0.8-0.1l21.7,47l0.5-0.7c0.7-1.5,2.4-2.3,4-1.9
		L1107,277.4z"/>
	
		<rect x="1046.9" y="253" transform="matrix(-0.4191 -0.908 0.908 -0.4191 1285.8766 1350.3713)" class="st14" width="56.1" height="21.5"/>
	<path class="st15" d="M1044,256.2l-3.5,7.9l-5.6,2.5l3.2,7l5.3-2.5l3.6-7.8c1.8-4.2,5.3-7.4,9.4-9.3l81.8-37.8
		c3.2-1.5,7-0.4,8.5,2.8l-3.4-7.1c-1.5-3.2-5.1-4.5-8.2-3l-81.8,37.8C1049.2,248.7,1045.8,252,1044,256.2z"/>
	<path class="st16" d="M1033.9,264.5l13.8,29.9c0.7,1.5,0,3.3-1.5,4l-7.9,3.7c-1.5,0.7-3.3,0-4-1.5l-13.8-29.9c-0.7-1.5,0-3.3,1.5-4
		l7.9-3.7C1031.4,262.3,1033.2,263,1033.9,264.5z"/>
	
		<rect x="1018.5" y="283.7" transform="matrix(-0.4191 -0.908 0.908 -0.4191 1193.3541 1337.3917)" class="st2" width="12.1" height="6.4"/>
	<path class="st16" d="M1018.8,282.2l5.6,12.1c0.5,1,0,2.2-1,2.7l0,0c-1,0.5-2.2,0-2.7-1l-5.6-12.1c-0.5-1,0-2.2,1-2.7l0,0
		C1017.1,280.7,1018.4,281.2,1018.8,282.2z"/>
</g>
<g>
	<path class="st0" d="M1103.4,215.1L1103.4,215.1c-3.3,1.3-5,4.9-3.7,8.3l2,5.3c1.3,3.3,4.9,5,8.3,3.7v0c3.3-1.3,5-4.9,3.7-8.3
		l-2-5.3C1110.4,215.5,1106.7,213.9,1103.4,215.1z"/>
	<path class="st0" d="M1091.4,219.9L1091.4,219.9c-3.3,1.3-5,4.9-3.7,8.3l4.1,10.5c1.3,3.3,4.9,5,8.3,3.7l0,0c3.3-1.3,5-4.9,3.7-8.3
		l-4.1-10.5C1098.4,220.4,1094.7,218.7,1091.4,219.9z"/>
	<path class="st0" d="M1079.4,224.3L1079.4,224.3c-3.3,1.3-5,4.9-3.7,8.3l3.7,9.5c1.3,3.3,4.9,5,8.3,3.7v0c3.3-1.3,5-4.9,3.7-8.3
		l-3.7-9.5C1086.4,224.7,1082.7,223,1079.4,224.3z"/>
	<path class="st0" d="M1067.6,229L1067.6,229c-3.3,1.3-5,4.9-3.7,8.3l1.1,3c1.3,3.3,4.9,5,8.3,3.7h0c3.3-1.3,5-4.9,3.7-8.3l-1.1-3
		C1074.6,229.4,1070.9,227.8,1067.6,229z"/>
</g>
</svg>
